<?xml version="1.0" encoding="UTF-8"?>
<svg version="1.1" xmlns="http://www.w3.org/2000/svg" width="1024" height="1024">
<path d="M0 0 C0.78801498 -0.00983917 1.57602997 -0.01967834 2.38792419 -0.02981567 C35.39645669 -0.35693182 65.61304154 4.30110343 95.43359375 19.23828125 C96.16352539 19.60260254 96.89345703 19.96692383 97.64550781 20.34228516 C113.53744267 28.41333121 132.93555871 39.45767611 143.43359375 54.23828125 C142.65113281 55.08132813 141.86867188 55.924375 141.0625 56.79296875 C140.0402455 57.89962959 139.01811659 59.00640646 137.99609375 60.11328125 C137.47982422 60.66886719 136.96355469 61.22445312 136.43164062 61.796875 C133.61254639 64.7857744 133.61254639 64.7857744 131.43359375 68.23828125 C130.77359375 68.23828125 130.11359375 68.23828125 129.43359375 68.23828125 C129.17006104 68.82399902 128.90652832 69.4097168 128.63500977 70.01318359 C127.38256533 72.33278907 126.03042801 73.94032756 124.2109375 75.83984375 C123.59025391 76.4946875 122.96957031 77.14953125 122.33007812 77.82421875 C121.68361328 78.49710937 121.03714844 79.17 120.37109375 79.86328125 C119.0865124 81.20769939 117.80386273 82.55396672 116.5234375 83.90234375 C115.67060181 84.79107178 115.67060181 84.79107178 114.80053711 85.69775391 C113.33975412 87.21002104 113.33975412 87.21002104 112.43359375 89.23828125 C111.77359375 89.23828125 111.11359375 89.23828125 110.43359375 89.23828125 C110.43359375 89.89828125 110.43359375 90.55828125 110.43359375 91.23828125 C106.48165106 89.55558059 103.40837592 86.87243736 100.12109375 84.17578125 C70.71433227 60.65114756 33.3230754 50.91556682 -3.94140625 54.92578125 C-17.62954577 56.59596057 -31.10481729 60.33720317 -43.56640625 66.23828125 C-44.67113281 66.73972656 -45.77585937 67.24117188 -46.9140625 67.7578125 C-63.58027945 75.63873679 -77.32745146 86.61949585 -88.56640625 101.23828125 C-89.17484375 102.01945312 -89.78328125 102.800625 -90.41015625 103.60546875 C-97.78374731 113.55981668 -102.97070644 124.79877978 -106.94140625 136.48828125 C-107.17996338 137.18373047 -107.41852051 137.87917969 -107.66430664 138.59570312 C-110.97382438 148.86274333 -111.93456058 159.18368827 -111.87890625 169.92578125 C-111.8739917 171.06063965 -111.86907715 172.19549805 -111.86401367 173.36474609 C-111.44083892 203.9418348 -99.74440059 232.14744233 -78.56640625 254.23828125 C-77.880625 254.98722656 -77.19484375 255.73617187 -76.48828125 256.5078125 C-54.44432916 279.81725073 -21.20383909 292.48087076 10.515625 293.42578125 C46.20991588 294.05165552 78.69908874 283.10041321 105.43359375 259.23828125 C108.01950184 256.72188682 110.24784314 254.10440031 112.43359375 251.23828125 C113.12453125 250.39394531 113.81546875 249.54960938 114.52734375 248.6796875 C119.12285343 242.88021724 122.89458342 236.94476915 126.37109375 230.42578125 C126.74862793 229.72074463 127.12616211 229.01570801 127.51513672 228.28930664 C129.725181 224.01584891 131.39958017 219.94747453 132.43359375 215.23828125 C132.10359375 214.57828125 131.77359375 213.91828125 131.43359375 213.23828125 C85.89359375 213.23828125 40.35359375 213.23828125 -6.56640625 213.23828125 C-6.56640625 196.40828125 -6.56640625 179.57828125 -6.56640625 162.23828125 C0.20310547 162.25568359 0.20310547 162.25568359 7.109375 162.2734375 C10.70568056 162.27986753 14.30198451 162.28529067 17.89829254 162.29003143 C21.69579724 162.29531414 25.49327965 162.30237484 29.29077148 162.3137207 C32.94768177 162.32457829 36.60457043 162.3305642 40.26149559 162.33315849 C41.657354 162.33500755 43.05321122 162.33861824 44.44906044 162.34401131 C46.40263339 162.35125969 48.35622806 162.35168963 50.30981445 162.35180664 C51.42234085 162.35402725 52.53486725 162.35624786 53.68110657 162.35853577 C56.52451615 162.36048406 56.52451615 162.36048406 59.43359375 161.23828125 C59.76359375 161.56828125 60.09359375 161.89828125 60.43359375 162.23828125 C62.78346637 162.47355898 65.13915414 162.65214542 67.49609375 162.80078125 C68.78644531 162.88457031 70.07679688 162.96835937 71.40625 163.0546875 C72.40527344 163.11527344 73.40429688 163.17585937 74.43359375 163.23828125 C74.76359375 162.57828125 75.09359375 161.91828125 75.43359375 161.23828125 C75.43359375 161.89828125 75.43359375 162.55828125 75.43359375 163.23828125 C76.27752686 163.16609375 77.12145996 163.09390625 77.9909668 163.01953125 C91.40658686 162.01785944 104.8006044 162.16068447 118.24609375 162.23828125 C122.94010159 162.26484932 127.63407063 162.28479693 132.328125 162.30078125 C133.3998848 162.30907959 134.47164459 162.31737793 135.57588196 162.32592773 C137.05969612 162.33088257 137.05969612 162.33088257 138.57348633 162.3359375 C139.87676628 162.34379272 139.87676628 162.34379272 141.20637512 162.35180664 C143.60734533 162.32898869 143.60734533 162.32898869 146.43359375 161.23828125 C146.43359375 161.89828125 146.43359375 162.55828125 146.43359375 163.23828125 C147.34238281 163.17769531 148.25117188 163.11710938 149.1875 163.0546875 C151.12963867 162.92521159 153.07177734 162.79573568 155.01391602 162.66625977 C156.42626953 162.57210286 157.83862305 162.47794596 159.25097656 162.38378906 C160.70605469 162.28678385 162.16113281 162.18977865 163.61621094 162.09277344 C164.32680664 162.04540039 165.03740234 161.99802734 165.76953125 161.94921875 C167.13671875 161.85807292 168.50390625 161.76692708 169.87109375 161.67578125 C171.12792969 161.59199219 172.38476562 161.50820313 173.6796875 161.421875 C174.58847656 161.36128906 175.49726562 161.30070313 176.43359375 161.23828125 C176.43359375 161.89828125 176.43359375 162.55828125 176.43359375 163.23828125 C177.42359375 162.90828125 178.41359375 162.57828125 179.43359375 162.23828125 C181.09627249 162.09607846 182.76511105 162.01807558 184.43359375 161.98828125 C185.73296875 161.94960938 185.73296875 161.94960938 187.05859375 161.91015625 C189.43359375 162.23828125 189.43359375 162.23828125 191.08203125 163.29296875 C193.07487277 166.16127823 194.02629223 169.31246529 195.05859375 172.61328125 C195.27515625 173.27328125 195.49171875 173.93328125 195.71484375 174.61328125 C203.86835315 199.87909433 194.98836684 230.53804999 183.49609375 253.61328125 C182.17491609 256.17349242 180.8140978 258.70964883 179.43359375 261.23828125 C178.56734375 262.84316406 178.56734375 262.84316406 177.68359375 264.48046875 C156.20106996 302.77107828 117.94214341 330.97266021 75.98925781 343.23120117 C44.47426125 351.87079521 9.57970762 353.59436552 -22.56640625 347.23828125 C-23.99388184 346.95621826 -23.99388184 346.95621826 -25.45019531 346.66845703 C-53.49900276 340.86764246 -81.29474666 329.51079613 -103.56640625 311.23828125 C-105.03013672 310.05878906 -105.03013672 310.05878906 -106.5234375 308.85546875 C-108.41309751 307.32249156 -110.29515998 305.78008152 -112.16796875 304.2265625 C-113.54628804 303.08394928 -114.93249437 301.95041019 -116.33984375 300.84375 C-119.9053203 298.02343918 -122.79631878 294.83632733 -125.7265625 291.38671875 C-126.93716103 289.97306867 -128.17390041 288.58132515 -129.4375 287.21484375 C-153.60307048 261.05573526 -167.98640539 226.47891473 -171.56640625 191.23828125 C-171.75203125 189.48837891 -171.75203125 189.48837891 -171.94140625 187.703125 C-175.71511876 144.3526025 -162.02718287 100.13602084 -134.39453125 66.55859375 C-127.82266205 58.76544451 -121.04686449 51.12958637 -113.1875 44.60546875 C-111.54486417 43.26652582 -111.54486417 43.26652582 -110.10546875 41.73046875 C-108.36222576 40.04031946 -106.54299984 38.80573555 -104.50390625 37.48828125 C-101.23444783 35.35419746 -98.04302989 33.1502221 -94.87890625 30.86328125 C-67.76997924 11.94524169 -33.13198111 0.34396616 0 0 Z " fill="#FEFEFE" transform="translate(341.56640625,303.76171875)"/>
<path d="M0 0 C3.68497012 1.22832337 4.49950808 2.58616317 6.875 5.625 C10.59042533 10.27981974 14.39781524 14.82405637 18.3125 19.3125 C19.43238641 20.59887586 20.55217754 21.88533467 21.671875 23.171875 C22.22681641 23.80931641 22.78175781 24.44675781 23.35351562 25.10351562 C27.4317253 29.80095523 31.46772568 34.53483503 35.51171875 39.26171875 C37.01672049 41.01952918 38.52367703 42.77564446 40.03125 44.53125 C45.30700709 50.67639481 50.56039584 56.83894305 55.78100586 63.03100586 C59.90514405 67.91129759 64.10139311 72.72756635 68.29785156 77.5456543 C71.49546714 81.22863928 74.62238964 84.95510146 77.6875 88.75 C80.63368331 92.39382234 83.68906459 95.87649117 86.875 99.3125 C90.60059865 103.35431458 94.02971293 107.52182265 97.375 111.875 C101.54442498 117.29347447 105.97558969 122.34118892 110.65966797 127.31811523 C114.5255521 131.43934095 118.12241043 135.72421622 121.6640625 140.12890625 C124.34672653 143.42616053 127.10177786 146.65391462 129.875 149.875 C130.89978081 151.06637079 131.92452035 152.25777708 132.94921875 153.44921875 C133.45630371 154.03880371 133.96338867 154.62838867 134.48583984 155.23583984 C141.08599845 162.92573763 147.59770183 170.68230801 153.984375 178.55078125 C155.80338731 180.76109272 157.66865274 182.91643476 159.5625 185.0625 C162 188 162 188 162 190 C166.21848939 185.94740626 169.92871082 181.59210096 173.625 177.0625 C174.24109131 176.31105713 174.85718262 175.55961426 175.49194336 174.78540039 C179.68678206 169.65270669 183.81020836 164.46854083 187.88525391 159.24047852 C191.36721072 154.78029396 194.92190094 150.3833156 198.5 146 C203.10278067 140.36072824 207.63584881 134.67361352 212.1171875 128.9375 C215.58080516 124.51176633 219.13089032 120.16283711 222.703125 115.82421875 C225.25772133 112.68310796 227.75752228 109.50292493 230.25 106.3125 C234.35777293 101.05516375 238.53290566 95.85752456 242.75 90.6875 C246.62613044 85.93389248 250.47256333 81.16578185 254.21875 76.30859375 C261.67162035 66.64928153 269.29716766 57.13701591 277.00390625 47.6796875 C285.46481951 37.29667834 293.71646337 26.74894144 301.97265625 16.203125 C302.70198364 15.27258301 302.70198364 15.27258301 303.44604492 14.32324219 C304.36757749 13.14743402 305.28836931 11.97104473 306.20825195 10.79394531 C306.63195068 10.25350586 307.05564941 9.71306641 307.4921875 9.15625 C307.85683105 8.69025391 308.22147461 8.22425781 308.59716797 7.74414062 C309.06010254 7.16857422 309.52303711 6.59300781 310 6 C310.68144073 4.98611206 311.36288147 3.97222412 312.06497192 2.9276123 C314.43372688 0.10645453 314.94254184 0.01010707 318.87231445 -0.68115234 C320.3696395 -0.68021037 321.86719201 -0.6467666 323.36328125 -0.5859375 C324.15526413 -0.57744781 324.94724701 -0.56895813 325.76322937 -0.56021118 C328.28106496 -0.5267492 330.79564076 -0.45149443 333.3125 -0.375 C335.02404212 -0.34489059 336.7356347 -0.31751647 338.44726562 -0.29296875 C342.63275733 -0.22698296 346.81582698 -0.12352036 351 0 C351.04573541 42.64297102 351.08099781 85.28593922 351.10213066 127.92892989 C351.1046322 132.95847934 351.10722083 137.98802874 351.10986328 143.01757812 C351.11065021 144.51957512 351.11065021 144.51957512 351.11145304 146.05191548 C351.12016572 162.28478651 351.13594042 178.51764344 351.15430559 194.75050609 C351.17298068 211.39559752 351.18411165 228.04068155 351.18817699 244.68578303 C351.19092703 254.96425265 351.19962592 265.2426824 351.21583293 275.52113976 C351.22637033 282.56072341 351.22960802 289.60028633 351.22700275 296.6398773 C351.22571638 300.7068876 351.22774662 304.77382803 351.23841095 308.84082603 C351.24809012 312.55908446 351.24866996 316.27722555 351.24179779 319.99548919 C351.24054261 321.98828118 351.24921619 323.98107164 351.25816262 325.97384393 C351.25418052 327.14476355 351.25019842 328.31568316 351.24609566 329.52208519 C351.2468551 330.53897623 351.24761454 331.55586728 351.24839699 332.6035732 C351 335 351 335 349 337 C346.48165894 337.20254517 346.48165894 337.20254517 343.26513672 337.13525391 C341.46349564 337.10499619 341.46349564 337.10499619 339.62545776 337.0741272 C338.32335358 337.04193085 337.02124939 337.0097345 335.6796875 336.9765625 C334.3373481 336.95039832 332.99499095 336.92513107 331.65261841 336.90072632 C328.11783393 336.83404596 324.58342243 336.75516017 321.0489502 336.67376709 C317.44293546 336.59287524 313.83670178 336.52347765 310.23046875 336.453125 C303.15338848 336.31335983 296.07663822 336.1607048 289 336 C287.5393715 333.35261084 287 332.10551666 287 329 C287.66 329 288.32 329 289 329 C288.855625 328.38125 288.71125 327.7625 288.5625 327.125 C288.07434692 324.41303845 287.68946618 321.73626414 287.375 319 C287.23191406 317.7625 287.23191406 317.7625 287.0859375 316.5 C286.99382412 313.82033806 287.46312221 311.62122686 288 309 C288.09110785 306.83484875 288.13006323 304.66706136 288.125 302.5 C288.12886719 300.84484375 288.12886719 300.84484375 288.1328125 299.15625 C288.09754455 296.08156345 288.09754455 296.08156345 287.4296875 293.46875 C287 291 287 291 287.46484375 288.28588867 C288.03479556 284.78635335 288.12949835 281.50151362 288.1328125 277.95703125 C288.13376923 277.30675461 288.13472595 276.65647797 288.13571167 275.98649597 C288.13638783 274.62258812 288.13457318 273.25867694 288.13037109 271.89477539 C288.12498848 269.80803246 288.13034853 267.72150218 288.13671875 265.63476562 C288.13542969 264.31798828 288.13414062 263.00121094 288.1328125 261.64453125 C288.13168457 260.44159424 288.13055664 259.23865723 288.12939453 257.99926758 C288.1355056 254.94811048 288.1355056 254.94811048 287 252 C287.33 251.01 287.66 250.02 288 249 C288.09475392 246.97047834 288.13072224 244.93798131 288.1328125 242.90625 C288.13474609 241.11380859 288.13474609 241.11380859 288.13671875 239.28515625 C288.13285156 238.03605469 288.12898438 236.78695312 288.125 235.5 C288.12886719 234.25089844 288.13273437 233.00179687 288.13671875 231.71484375 C288.13542969 230.51988281 288.13414062 229.32492187 288.1328125 228.09375 C288.13168457 226.99740234 288.13055664 225.90105469 288.12939453 224.77148438 C288.1216493 221.91221469 288.1216493 221.91221469 287 219 C287.23171485 217.37378308 287.46832671 215.74806701 287.73339844 214.12695312 C288.268863 209.85500508 288.14288685 205.54880623 288.125 201.25 C288.12886719 200.30511719 288.13273437 199.36023438 288.13671875 198.38671875 C288.13542969 197.48050781 288.13414062 196.57429687 288.1328125 195.640625 C288.13168457 194.82110352 288.13055664 194.00158203 288.12939453 193.15722656 C288.08234365 190.81559979 288.08234365 190.81559979 287 188 C287.30782862 186.66054846 287.64460491 185.32762315 288 184 C288.08978185 182.30048857 288.12787505 180.59787669 288.12939453 178.89599609 C288.13254669 177.88169525 288.13569885 176.86739441 288.13894653 175.82235718 C288.1369223 174.73371368 288.13489807 173.64507019 288.1328125 172.5234375 C288.13376923 171.40184235 288.13472595 170.28024719 288.13571167 169.12466431 C288.13639178 166.75596053 288.13454926 164.38725488 288.13037109 162.01855469 C288.12501049 158.38211921 288.13032697 154.74580668 288.13671875 151.109375 C288.13605814 148.80989556 288.13477732 146.5104162 288.1328125 144.2109375 C288.13584885 142.57189957 288.13584885 142.57189957 288.13894653 140.89974976 C288.13579437 139.89175323 288.13264221 138.88375671 288.12939453 137.84521484 C288.12859894 136.95571136 288.12780334 136.06620789 288.12698364 135.14974976 C288.13853676 132.94899483 288.13853676 132.94899483 287 131 C287.66 131 288.32 131 289 131 C288.67 130.34 288.34 129.68 288 129 C281.32402635 137.13086126 274.70905466 145.27216922 268.44921875 153.73046875 C263.6578278 160.17152271 258.66451841 166.462477 253.72436523 172.78955078 C251.94758495 175.06719041 250.17468366 177.34781016 248.40234375 179.62890625 C245.51142964 183.34711729 242.60326579 187.05127164 239.6875 190.75 C234.40665769 197.46070947 229.19468473 204.22251088 224 211 C198.76378401 243.8949681 198.76378401 243.8949681 186.07421875 259.63671875 C185.07030133 260.8828035 184.06639514 262.1288973 183.0625 263.375 C182.57072266 263.9844043 182.07894531 264.59380859 181.57226562 265.22167969 C177.16381542 270.71931022 172.95780478 276.36105724 168.83227539 282.07373047 C167.60130937 283.75092953 166.30638211 285.38085214 165 287 C164.34 287 163.68 287 163 287 C161.84375 285.63671875 161.84375 285.63671875 160.5 283.6875 C157.92971441 280.13537783 155.16285972 276.9081071 152.1875 273.6875 C148.84825689 270.06915597 145.6476694 266.39961033 142.5625 262.5625 C138.90988245 258.0337696 135.06537268 253.75511786 131.10375977 249.50048828 C127.16288893 245.24215262 123.497096 240.81162202 119.875 236.27734375 C118.09705526 234.02840874 118.09705526 234.02840874 116.25 232.31640625 C115 231 115 231 115 229 C114.34 229 113.68 229 113 229 C111.60674046 227.44759659 110.28619872 225.82970015 109 224.1875 C105.78254658 220.16052706 102.49961778 216.28942988 99 212.5 C95.72581577 208.94329756 92.59357567 205.32838189 89.5625 201.5625 C85.90428985 197.02683557 82.05257035 192.7429883 78.08618164 188.48071289 C74.30509442 184.39338994 70.80310034 180.11956756 67.3125 175.78125 C64.8002899 172.75980812 62.17599173 169.87558227 59.5 167 C55.23081848 162.41239887 51.24241483 157.66557272 47.3125 152.78125 C44.35823636 149.22814914 41.23086576 145.8597632 38.08374023 142.47827148 C35.11284372 139.2670095 32.30038923 135.97372185 29.5625 132.5625 C25.72447916 127.79072096 21.64329592 123.32046502 17.45922852 118.85595703 C13.40631361 114.50588472 9.63569363 109.99760656 5.9375 105.33984375 C4.13006987 102.96704294 4.13006987 102.96704294 1.9072876 101.45013428 C-1.02694912 97.68076359 -0.52744324 94.10572825 -0.45410156 89.45800781 C-0.45468567 88.49182022 -0.45526978 87.52563263 -0.45587158 86.53016663 C-0.45308547 83.33745361 -0.42196785 80.14567486 -0.390625 76.953125 C-0.38316451 74.73924266 -0.37747067 72.52535371 -0.37347412 70.3114624 C-0.35820283 64.48502362 -0.31890768 58.6589838 -0.2746582 52.83270264 C-0.23373801 46.88722124 -0.21547003 40.94167538 -0.1953125 34.99609375 C-0.15241525 23.3305539 -0.08414547 11.66531013 0 0 Z " fill="#FEFEFE" transform="translate(497,311)"/>
<path d="M0 0 C4 1 4 1 4 1 Z " fill="#7F7F7F" transform="translate(363,655)"/>
<path d="M0 0 C3 1 3 1 3 1 Z " fill="#555555" transform="translate(371,655)"/>
<path d="M0 0 C3 1 3 1 3 1 Z " fill="#555555" transform="translate(356,655)"/>
<path d="M0 0 C3 1 3 1 3 1 Z " fill="#555555" transform="translate(348,655)"/>
<path d="M0 0 C3 1 3 1 3 1 Z " fill="#AAAAAA" transform="translate(320,304)"/>
<path d="" fill="#7F7F7F" transform="translate(0,0)"/>
<path d="" fill="#000000" transform="translate(0,0)"/>
<path d="" fill="#7F7F7F" transform="translate(0,0)"/>
<path d="M0 0 C2 1 2 1 2 1 Z " fill="#000000" transform="translate(723,417)"/>
<path d="M0 0 C2 1 2 1 2 1 Z " fill="#000000" transform="translate(305,307)"/>
<path d="" fill="#000000" transform="translate(0,0)"/>
<path d="" fill="#000000" transform="translate(0,0)"/>
<path d="" fill="#FFFFFF" transform="translate(0,0)"/>
<path d="" fill="#FFFFFF" transform="translate(0,0)"/>
<path d="" fill="#000000" transform="translate(0,0)"/>
<path d="" fill="#000000" transform="translate(0,0)"/>
<path d="" fill="#000000" transform="translate(0,0)"/>
<path d="" fill="#000000" transform="translate(0,0)"/>
<path d="" fill="#000000" transform="translate(0,0)"/>
<path d="" fill="#000000" transform="translate(0,0)"/>
<path d="" fill="#000000" transform="translate(0,0)"/>
<path d="" fill="#000000" transform="translate(0,0)"/>
<path d="" fill="#000000" transform="translate(0,0)"/>
<path d="" fill="#FFFFFF" transform="translate(0,0)"/>
<path d="" fill="#000000" transform="translate(0,0)"/>
<path d="" fill="#000000" transform="translate(0,0)"/>
<path d="" fill="#000000" transform="translate(0,0)"/>
<path d="" fill="#000000" transform="translate(0,0)"/>
<path d="" fill="#000000" transform="translate(0,0)"/>
<path d="" fill="#000000" transform="translate(0,0)"/>
<path d="" fill="#000000" transform="translate(0,0)"/>
<path d="" fill="#000000" transform="translate(0,0)"/>
<path d="" fill="#000000" transform="translate(0,0)"/>
<path d="" fill="#000000" transform="translate(0,0)"/>
<path d="" fill="#000000" transform="translate(0,0)"/>
<path d="" fill="#FFFFFF" transform="translate(0,0)"/>
<path d="" fill="#000000" transform="translate(0,0)"/>
<path d="" fill="#000000" transform="translate(0,0)"/>
<path d="" fill="#000000" transform="translate(0,0)"/>
<path d="" fill="#000000" transform="translate(0,0)"/>
<path d="" fill="#000000" transform="translate(0,0)"/>
<path d="" fill="#000000" transform="translate(0,0)"/>
<path d="" fill="#FFFFFF" transform="translate(0,0)"/>
<path d="" fill="#000000" transform="translate(0,0)"/>
<path d="" fill="#000000" transform="translate(0,0)"/>
<path d="" fill="#000000" transform="translate(0,0)"/>
<path d="" fill="#000000" transform="translate(0,0)"/>
<path d="" fill="#000000" transform="translate(0,0)"/>
<path d="" fill="#000000" transform="translate(0,0)"/>
<path d="" fill="#000000" transform="translate(0,0)"/>
<path d="" fill="#000000" transform="translate(0,0)"/>
<path d="" fill="#FFFFFF" transform="translate(0,0)"/>
<path d="" fill="#000000" transform="translate(0,0)"/>
<path d="" fill="#000000" transform="translate(0,0)"/>
<path d="" fill="#FFFFFF" transform="translate(0,0)"/>
<path d="" fill="#000000" transform="translate(0,0)"/>
<path d="" fill="#000000" transform="translate(0,0)"/>
<path d="" fill="#000000" transform="translate(0,0)"/>
<path d="" fill="#000000" transform="translate(0,0)"/>
<path d="" fill="#000000" transform="translate(0,0)"/>
<path d="" fill="#FFFFFF" transform="translate(0,0)"/>
<path d="" fill="#000000" transform="translate(0,0)"/>
<path d="" fill="#FFFFFF" transform="translate(0,0)"/>
<path d="" fill="#000000" transform="translate(0,0)"/>
<path d="" fill="#FFFFFF" transform="translate(0,0)"/>
<path d="" fill="#000000" transform="translate(0,0)"/>
<path d="" fill="#000000" transform="translate(0,0)"/>
<path d="" fill="#FFFFFF" transform="translate(0,0)"/>
<path d="" fill="#000000" transform="translate(0,0)"/>
<path d="" fill="#000000" transform="translate(0,0)"/>
<path d="" fill="#000000" transform="translate(0,0)"/>
<path d="" fill="#000000" transform="translate(0,0)"/>
<path d="" fill="#000000" transform="translate(0,0)"/>
<path d="" fill="#000000" transform="translate(0,0)"/>
<path d="" fill="#000000" transform="translate(0,0)"/>
<path d="" fill="#000000" transform="translate(0,0)"/>
</svg>
